<?xml version="1.0" standalone="no"?>
<!DOCTYPE svg PUBLIC "-//W3C//DTD SVG 20010904//EN"
 "http://www.w3.org/TR/2001/REC-SVG-20010904/DTD/svg10.dtd">
<svg version="1.0" xmlns="http://www.w3.org/2000/svg"
 width="300.000000pt" height="300.000000pt" viewBox="0 0 300.000000 300.000000"
 preserveAspectRatio="xMidYMid meet">
<metadata>
Created by potrace 1.11, written by Peter Selinger 2001-2013
</metadata>
<g transform="translate(0.000000,300.000000) scale(0.100000,-0.100000)"
fill="#000000" stroke="none">
<path d="M1375 2990 c-352 -29 -676 -180 -930 -435 -208 -208 -344 -455 -406
-737 -43 -197 -43 -439 0 -637 159 -726 838 -1231 1576 -1171 366 30 681 176
940 435 313 313 467 727 434 1169 -27 361 -175 681 -434 941 -207 208 -454
344 -736 406 -78 17 -296 41 -339 37 -8 0 -56 -4 -105 -8z m465 -1302 c0 -461
-3 -574 -15 -626 -50 -213 -191 -312 -447 -312 -233 0 -348 59 -418 214 -37
82 -60 196 -60 301 l0 85 144 0 144 0 7 -82 c11 -139 24 -189 59 -224 54 -54
177 -54 231 0 41 41 45 96 45 666 l0 540 155 0 155 0 0 -562z"/>
</g>
</svg>
